<svg width="30" height="42" viewBox="0 0 30 42" fill="none" xmlns="http://www.w3.org/2000/svg">
<g clip-path="url(#clip0_13_352)">
<path d="M14.1852 1.03135C14.3333 1.10635 14.3889 1.1626 14.537 1.2001C14.6666 1.2376 14.8518 1.33135 14.8889 1.21885C14.9444 1.10635 14.8704 0.956348 14.7778 0.825098C14.6296 0.581348 14.5555 0.525098 14.3518 0.187598C14.3148 0.112598 14.2778 0.0375977 14.2037 0.0375977C14.2037 0.0375977 14.1852 0.281348 14.1111 0.431348C14.0555 0.562598 13.9074 0.656348 13.9259 0.750098C13.9444 0.843848 14.037 0.956348 14.1852 1.03135Z" fill="white" style="mix-blend-mode:difference"/>
<path d="M29.6666 17.1001C29.4999 17.3251 29.4258 17.7751 29.1851 18.1501C28.8517 18.6751 28.3703 19.3126 28.1295 19.3126C27.9999 19.3126 27.9628 19.0126 27.9628 19.0126C27.9628 19.0126 27.7962 18.5063 28.074 17.8688C28.2777 17.4188 28.3888 17.2876 28.648 16.9501C28.8888 16.6313 29.0369 16.4626 29.2036 16.1251C29.3517 15.8251 29.3888 15.7688 29.4814 15.3001C29.4999 15.1876 29.4628 14.9438 29.3517 14.9626C29.2036 14.9626 28.7962 15.8626 28.3703 16.3688C27.9628 16.8376 27.2036 17.4376 27.2036 17.4376C27.2036 17.4376 27.1295 17.4938 27.1295 17.3438C27.111 17.2126 27.0925 16.8188 27.1666 16.4626C27.2406 16.1063 27.3517 15.7501 27.6665 15.2063C28.0184 14.5876 28.4628 14.1563 28.6851 13.9313C28.7777 13.8376 29.0554 13.6688 28.9073 13.5751C28.7777 13.5001 28.3888 13.8376 28.0925 14.0626C27.7221 14.3438 27.5925 14.4188 27.2221 14.8688C26.8517 15.3188 26.7591 15.5063 26.7591 15.5063C26.7591 15.5063 26.4073 16.0876 26.3147 16.6501C26.2221 17.2126 26.2221 17.5313 26.2221 17.5313C26.2221 17.5313 26.2221 18.0376 26.2777 18.3376C26.3147 18.6563 26.4443 19.1438 26.4443 19.1438C26.4443 19.1438 26.6295 19.6876 26.7036 20.0251C26.7777 20.3626 26.9073 21.3563 26.9073 21.3563C26.9073 21.3563 26.9999 22.0688 26.9443 22.7438C26.8888 23.4188 26.8332 23.8126 26.7591 24.0188C26.6851 24.2251 26.4814 24.7688 26.148 25.1438C25.8332 25.5001 25.7591 25.5563 25.7591 25.5563C25.7591 25.5563 25.4258 25.8376 25.148 25.9876C24.8703 26.1376 24.4628 26.3251 24.2777 26.3813C24.0925 26.4188 23.8332 26.4376 23.8147 26.4376H23.574L23.4999 26.3813L23.4628 26.2313C23.4628 26.2313 23.2777 25.5001 23.0554 25.0313C22.8703 24.6376 22.4814 24.0938 22.4814 24.0938C22.4814 24.0938 21.8147 23.1751 21.2962 22.6688C20.7036 22.0688 20.0369 21.6188 19.6295 21.3001C19.4814 21.1876 19.148 20.9813 19.148 20.9813C19.148 20.9813 17.7962 19.6126 17.3147 18.5251C16.9814 17.7751 16.7591 17.2313 16.8517 16.4063C16.8703 16.2188 16.9443 15.8626 16.9814 15.8626L17.2221 15.9376C17.2406 15.9563 17.4628 16.1626 17.6666 16.2376C17.7777 16.2751 17.9814 16.3126 17.9814 16.3126C17.9814 16.3126 18.148 16.3313 18.2406 16.3501C18.3332 16.3876 18.4999 16.4438 18.611 16.5001C18.7221 16.5563 18.8888 16.6688 18.8888 16.6688L19.2036 16.9126L19.5369 17.1751C19.5369 17.1751 19.7221 17.3063 19.7777 17.3251C19.8332 17.3438 19.8703 17.3626 19.8888 17.3626H19.9628C19.9628 17.3626 20.0369 17.3438 20.0554 17.2688C20.074 17.1751 19.9628 17.2501 19.7962 17.0626C19.611 16.8938 19.5369 16.7438 19.5369 16.7438C19.5369 16.7438 19.4999 16.5938 19.3517 16.4251C19.2036 16.2563 19.0184 16.1063 19.0184 16.1063C19.0184 16.1063 18.8888 16.0126 18.7036 15.9563C18.5184 15.9001 18.4628 15.9001 18.4443 15.8251C18.4258 15.7501 18.6666 15.7876 18.6666 15.7876C18.6666 15.7876 18.9443 15.8251 19.1666 15.9376C19.3888 16.0501 19.5184 16.1813 19.5184 16.1813L19.6666 16.3126L19.7591 16.4063L19.8517 16.4626C19.8517 16.4626 19.9443 16.5563 19.9628 16.4251C19.9814 16.3126 19.9443 16.2188 19.9258 16.2001L19.8332 16.1063L19.4628 15.7876C19.3517 15.6751 19.2777 15.6001 19.1666 15.5251C19.0554 15.4501 18.8888 15.3376 18.6851 15.2626C18.4999 15.1876 18.3888 15.2063 18.2036 15.1126C18.074 15.0563 17.9628 15.0188 17.8888 14.9063C17.8703 14.8876 17.7777 14.8126 17.9443 14.8501C18.111 14.8876 18.2221 14.9438 18.4073 14.9813C18.7036 15.0563 18.8888 15.0563 19.1666 15.1501C19.2777 15.1876 19.4258 15.2626 19.4258 15.2626L19.7777 15.4126C19.7777 15.4126 20.2591 15.6751 20.5925 15.6938C20.9258 15.7126 21.2036 15.6376 21.3147 15.5813C21.4258 15.5438 21.6295 15.4126 21.6851 15.3563C21.7406 15.3001 21.7777 15.2438 21.7777 15.2438L21.8147 15.1501V15.0751C21.7221 14.9626 21.5369 15.2626 21.2406 15.3188C20.9258 15.3751 20.9443 15.4126 20.7406 15.3751C20.5184 15.3376 20.3888 15.2813 20.2221 15.1126C19.9258 14.8313 19.8147 14.5688 19.4258 14.4001C19.2591 14.3251 18.9628 14.2501 18.9628 14.2501C18.9628 14.2501 18.5554 14.1188 18.3332 13.9876C18.1666 13.8938 17.8147 13.8376 17.9258 13.6876C17.9814 13.6126 18.4258 13.8751 18.7591 13.9126C18.9999 13.9501 19.1666 13.9313 19.3517 13.9313C19.5369 13.9313 19.7962 13.8751 19.8332 13.8751C19.8703 13.8563 20.0184 13.8751 20.148 13.9126C20.2777 13.9501 20.3517 14.0063 20.4814 14.0626C20.611 14.1188 20.7591 14.2126 20.7962 14.2126L20.8703 14.2313L20.9073 14.1938L20.9258 14.1563L20.9073 14.1188L20.8517 14.0813L20.7406 14.0063C20.7406 14.0063 20.574 13.9126 20.4258 13.7626C20.2777 13.6126 20.148 13.4438 19.9258 13.3688C19.7036 13.2938 19.4443 13.2563 19.4443 13.2563L19.1851 13.2376L19.074 13.2188C19.074 13.2188 18.8888 13.1626 19.0369 13.1251C19.1851 13.0876 19.2591 13.0688 19.2962 13.0688C19.3147 13.0501 19.574 13.0313 19.7221 13.0876C19.8703 13.1438 20.111 13.2751 20.1295 13.2751C20.148 13.2938 20.3703 13.4626 20.611 13.5188C20.8517 13.5751 21.1666 13.5938 21.1666 13.5938L21.3147 13.5563L21.3888 13.5376L21.4443 13.5001L21.4258 13.4063C21.4258 13.4063 21.4258 13.3313 21.3147 13.3126C21.2036 13.2938 20.9814 13.2563 20.7777 13.1063C20.574 12.9563 20.4258 12.8063 20.4258 12.8063C20.4258 12.8063 20.2777 12.6751 19.9814 12.6001C19.7036 12.5251 19.611 12.5251 19.611 12.5251L19.5184 12.4876L19.3147 12.3938C19.3147 12.3938 19.2221 12.3376 19.148 12.2438C19.074 12.1501 18.9628 11.9813 19.2777 12.0751C19.5925 12.1688 19.6666 12.2251 19.6666 12.2251C19.6666 12.2251 19.8332 12.3938 19.9814 12.4126C20.074 12.4313 20.148 12.4501 20.2036 12.3751C20.2962 12.2813 20.0369 12.1688 19.8517 12.0376C19.7036 11.9438 19.5554 11.7001 19.5554 11.7001C19.5554 11.7001 19.4443 11.6063 19.611 11.6438C19.7777 11.6813 20.074 11.8688 20.074 11.8688C20.074 11.8688 20.2221 11.9438 20.2962 11.9626C20.3517 11.9813 20.4999 12.0751 20.574 12.1126C20.6295 12.1313 20.7962 12.1688 20.9073 12.2251C21.0554 12.3188 21.1295 12.4688 21.2036 12.5251C21.2777 12.5813 21.3332 12.6751 21.4258 12.6938C21.5184 12.7126 21.5369 12.7501 21.5925 12.7126C21.648 12.6751 21.6666 12.6563 21.6666 12.6563C21.6666 12.6563 21.6851 12.6188 21.5925 12.5626C21.4999 12.5063 21.3888 12.3563 21.3888 12.3563L21.3517 12.2813L21.3332 12.2063L21.2406 12.0563L21.074 11.8126C21.074 11.8126 20.8147 11.4563 20.574 11.3251C20.3517 11.1938 20.1851 11.1188 20.1851 11.1188C20.1851 11.1188 20.074 11.0626 20.0184 11.0251C19.9258 10.9501 19.8888 10.8938 19.8147 10.8001C19.7221 10.6876 19.6851 10.6126 19.574 10.5001C19.3703 10.2938 18.7406 10.1813 18.9814 10.0313C19.111 9.95632 19.2777 9.99382 19.3517 10.0126C19.4258 10.0313 19.5925 10.1063 19.7591 10.1626C19.8703 10.2001 19.9443 10.2001 20.0554 10.2376C20.1666 10.2751 20.2962 10.2938 20.3517 10.3313C20.4073 10.3688 20.4628 10.4438 20.4999 10.4626C20.5184 10.4813 20.6666 10.7251 20.9258 10.8563C21.1851 10.9876 21.3147 11.0813 21.574 11.1001C21.7777 11.1188 22.111 11.0438 22.111 11.0438C22.111 11.0438 22.2036 11.0063 22.1295 10.9126C22.0369 10.8188 22.0369 10.8001 21.9628 10.7813C21.6666 10.6688 21.4258 10.7063 21.2036 10.4813C21.111 10.3876 21.074 10.3688 20.9999 10.2188C20.9258 10.0688 20.9628 10.0313 20.9073 9.93757C20.8703 9.84382 20.7777 9.71257 20.7777 9.71257C20.7777 9.71257 20.4999 9.37507 20.2036 9.20632C19.8888 9.03757 19.6666 8.86882 19.6295 8.83132C19.574 8.79382 19.4628 8.64382 19.4628 8.64382L19.3703 8.49382L19.3147 8.38132C19.2777 8.17507 19.648 8.43758 19.8517 8.51258C20.1851 8.62508 20.3517 8.77507 20.6851 8.88758C20.8703 8.94383 20.9814 8.94382 21.1666 9.01882C21.4814 9.15007 21.574 9.46883 21.9073 9.50632C22.0925 9.52507 22.4628 9.60007 22.3888 9.43132C22.3147 9.24382 21.9443 9.24382 21.7591 9.01882C21.6666 8.92507 21.6666 8.83132 21.574 8.73757C21.4258 8.55007 21.074 8.38132 21.074 8.38132C21.074 8.38132 20.9628 8.28757 20.8332 8.02507C20.7221 7.76257 20.4443 7.57507 19.9443 7.33132C19.611 7.16257 18.9443 7.12507 19.2036 6.95632C19.3517 6.84382 19.4814 6.86257 19.6851 6.91882C19.8888 6.99382 19.9628 7.08757 20.1295 7.16257C20.2962 7.23757 20.3703 7.25632 20.4073 7.27507C20.4443 7.29382 20.574 7.35007 20.6295 7.35007C20.6666 7.36882 20.9443 7.40632 21.0184 7.42507L21.3888 7.51882L21.6851 7.63132C21.6851 7.63132 21.8332 7.68757 21.9258 7.68757C22.0184 7.68757 22.1666 7.65007 22.1666 7.65007L22.2777 7.57507L22.2962 7.53757C22.2962 7.53757 22.3517 7.44382 22.2036 7.42507C22.074 7.40632 21.9999 7.40632 21.9814 7.40632L21.8517 7.36882L21.7962 7.35007C21.7962 7.35007 21.5369 7.14382 21.3147 7.05007C21.074 6.95632 21.0369 6.93757 21.0369 6.93757L20.9443 6.91882L20.8332 6.90007C20.8332 6.90007 20.7406 6.90007 20.5925 6.76882C20.4443 6.63757 20.3888 6.56257 20.2591 6.43132L20.0925 6.26257C20.0925 6.26257 19.9443 6.15007 19.9443 6.05632C19.9628 5.90632 20.2777 6.22507 20.2777 6.22507L20.4999 6.37507C20.4999 6.37507 20.6851 6.50632 21.0184 6.52507C21.3517 6.54382 21.7591 6.43132 21.7591 6.43132C21.7591 6.43132 21.8147 6.39382 21.9999 6.45007C22.1851 6.50632 22.3332 6.61882 22.3332 6.61882L22.4814 6.75007L22.7036 6.99382L22.7406 6.97507C22.7591 6.95632 22.8517 6.86257 22.6851 6.65632C22.5184 6.45007 22.2406 6.26257 22.2406 6.26257C22.2406 6.26257 21.8703 6.03757 21.4999 5.96257C21.1295 5.88757 20.9628 5.88757 20.9628 5.88757C20.9628 5.88757 20.6851 5.88757 20.5184 5.70007C20.3517 5.51257 20.2406 5.32507 20.2406 5.32507L20.1851 5.06257C20.1851 5.06257 20.0925 4.95007 19.9073 4.87507C19.7406 4.80007 19.5554 4.68757 19.5554 4.68757C19.5554 4.68757 19.2777 4.59382 19.2591 4.46257C19.2036 4.21882 19.7221 4.46257 19.9999 4.51882C20.2591 4.57507 20.3703 4.66882 20.6295 4.72507C20.8517 4.78132 20.9814 4.80007 21.2221 4.78132C21.3517 4.78132 21.4258 4.76257 21.5554 4.74382C21.6851 4.74382 21.7777 4.72507 21.9073 4.74382C22.0925 4.78132 22.1666 4.87507 22.3517 4.95007C22.4628 5.00632 22.5184 5.06257 22.648 5.08132C22.7591 5.10007 22.9814 5.17507 22.9443 5.06257L22.8888 4.98757C22.7962 4.85632 22.6851 4.85632 22.574 4.76257C22.3332 4.57507 22.2221 4.42507 21.9443 4.29382C21.7591 4.20007 21.648 4.16257 21.4443 4.12507C21.2962 4.10632 21.1851 4.14382 21.0369 4.10632C20.8703 4.05007 20.8147 3.97507 20.648 3.88132C20.3888 3.73132 20.2406 3.60007 19.9628 3.48757C19.7777 3.41257 19.4628 3.33757 19.4628 3.33757L19.3332 3.31882L19.2777 3.30007C19.0184 3.20632 19.7406 3.00007 20.074 2.90632C20.2406 2.86882 20.3147 2.83132 20.4814 2.85007C20.6295 2.86882 20.7962 3.07507 20.9628 2.98132C21.2036 2.85007 20.6851 2.49382 20.5184 2.43757C20.2962 2.34382 19.9073 2.41882 19.9073 2.41882L19.0554 2.40007L18.8147 2.36257C18.8147 2.36257 18.6666 2.36257 18.5554 2.23132C18.4443 2.10007 18.0184 1.57507 17.5369 1.50007C17.0369 1.42507 16.8888 1.50007 16.8517 1.46257C16.4258 0.787575 15.9814 0.637574 15.648 0.318824C15.5554 0.225074 15.4073 0.0188245 15.3703 0.0375745C15.3332 0.0563245 15.2777 0.337574 15.1851 0.581324C15.074 0.862574 15.148 0.993825 15.2036 1.10632C15.2777 1.21882 15.3703 1.29382 15.1851 1.40632C14.9999 1.51882 14.7591 1.48132 14.7591 1.48132C14.7591 1.48132 14.5554 1.44382 14.3888 1.35007C14.2221 1.27507 13.8703 1.12507 13.8703 1.12507C13.8703 1.12507 13.5369 1.03132 13.3147 1.05007C13.0925 1.06882 13.074 1.08757 12.9073 1.10632C12.8147 1.10632 12.7777 1.10632 12.6851 1.12507C12.611 1.14382 12.5184 1.08757 12.5184 1.18132C12.5184 1.27507 12.7036 1.27507 12.8332 1.33132C12.9628 1.38757 13.2591 1.38757 13.2036 1.46257C13.1295 1.53757 12.8517 1.55632 12.8332 1.53757C12.8147 1.53757 12.6295 1.50007 12.4814 1.50007C12.2406 1.51882 12.2221 1.51882 11.8703 1.68757C11.8147 1.70632 11.8332 1.83757 11.9443 1.80007C12.074 1.76257 12.2591 1.72507 12.4628 1.72507C12.6851 1.72507 12.8147 1.80007 13.0369 1.85632C13.2221 1.91257 13.2406 1.95007 13.5184 1.98757C13.574 1.98757 13.6851 1.95007 13.6851 2.02507C13.6851 2.06257 13.611 2.11882 13.611 2.11882C13.611 2.11882 13.4443 2.15632 13.4628 2.21257C13.4999 2.28757 13.648 2.21257 13.7221 2.21257C13.7962 2.21257 13.9073 2.23132 13.8888 2.30632L13.8517 2.36257C13.648 2.41882 13.5369 2.45632 13.3517 2.53132C12.8888 2.71882 12.7036 2.94382 12.2591 3.16882C11.8332 3.37507 11.148 3.63757 11.148 3.63757C11.148 3.63757 10.9443 3.75007 10.648 3.82507C10.3517 3.90007 10.3332 3.88132 10.1295 3.91882C9.92581 3.93757 9.83322 3.97507 9.66655 4.06882C9.55544 4.12507 9.49988 4.18132 9.40729 4.27507L9.14803 4.66882L8.99988 4.89382C8.96285 4.96882 8.92581 5.00632 8.90729 5.08132C8.87026 5.17507 8.85174 5.21257 8.83322 5.30632C8.77766 5.53132 8.83322 5.66257 8.87026 5.88757C8.88877 5.94382 8.88877 5.98132 8.90729 6.03757C8.92581 6.09382 8.99988 6.15007 8.99988 6.15007L9.07396 6.16882C9.07396 6.16882 9.33322 6.15007 9.49988 6.11257C9.66655 6.07507 9.90729 6.01882 9.90729 6.01882L10.2221 5.92507L10.4258 5.85007C10.4258 5.85007 10.5554 5.85007 10.574 5.92507C10.5925 5.98132 10.5369 6.07507 10.5369 6.07507C10.5369 6.07507 10.4258 6.13132 10.3332 6.16882C10.2406 6.20632 10.0184 6.26257 9.99988 6.28132L9.75914 6.35632L9.55544 6.37507C9.55544 6.37507 9.5184 6.39382 9.48137 6.45007C9.44433 6.50632 9.44433 6.50632 9.44433 6.54382C9.48137 6.58132 9.49988 6.61882 9.53692 6.65632C9.611 6.71257 9.64803 6.75007 9.74063 6.76882C9.87026 6.82507 9.94433 6.80632 10.074 6.80632C10.2591 6.80632 10.3703 6.76882 10.5369 6.69382C10.6851 6.60007 10.7406 6.60007 10.9443 6.52507C10.9999 6.50632 11.111 6.48757 11.148 6.48757C11.4999 6.45007 11.7036 6.50632 12.0554 6.56257C12.4073 6.61882 12.574 6.73132 12.9258 6.78757C13.2962 6.84382 13.5184 6.95632 13.9073 6.86257C14.0925 6.82507 14.2036 6.73132 14.2962 6.91882C14.3888 7.08757 14.3703 7.18132 14.3703 7.18132C14.3703 7.18132 14.3703 7.29382 14.2406 7.65007C14.111 8.00632 13.7036 8.88758 13.7036 8.88758L13.4258 9.45007C13.4258 9.45007 13.2036 9.90007 12.6851 10.4813C12.1666 11.0626 12.1295 11.1001 12.1295 11.1001C12.1295 11.1001 11.8517 11.3063 11.574 11.6626C11.2962 12.0188 11.2962 12.1501 11.0369 12.4126C10.8703 12.5813 10.7777 12.6751 10.574 12.8063C10.3703 12.9376 10.1295 12.9001 9.48137 13.3501C8.92581 13.7438 8.62951 14.0626 8.59248 14.0438C8.55544 14.0251 8.37025 13.8751 8.29618 13.8376C8.24063 13.8001 7.16655 13.0688 7.16655 13.0688L6.72211 12.7688L6.5184 12.6376L6.48137 12.5626L6.37026 12.4126C6.37026 12.4126 6.20359 12.2063 5.99989 12.0376C5.79618 11.8501 5.57396 11.7001 5.24063 11.6251C4.92581 11.5313 4.72211 11.4751 4.40729 11.5876C4.20359 11.6626 4.09248 11.7376 3.94433 11.8876C3.75914 12.0751 3.72211 12.2251 3.57396 12.4501C3.42581 12.6751 3.27766 12.8813 3.20359 12.9938C3.12951 13.1063 2.98137 13.4063 2.98137 13.4063C2.98137 13.4063 2.611 14.0063 2.40729 14.4001C2.16655 14.8313 2.07396 15.0938 1.85174 15.5063C1.49989 16.1626 0.999885 16.8376 0.870256 17.1376C0.740626 17.4376 0.722108 17.4751 0.722108 17.4751C0.722108 17.4751 0.685071 17.6438 0.666552 17.7563C0.648034 17.8688 0.648034 18.0563 0.629515 18.1313C0.610997 18.2251 0.555441 18.3188 0.536923 18.3376C0.518404 18.3563 0.3147 18.7876 0.240626 19.0688C0.166552 19.3501 -0.000114523 20.2313 0.203589 20.3438C0.407293 20.4563 1.90729 19.8001 2.111 19.1626C2.24063 18.7501 1.70359 18.5438 1.85174 18.1688C1.90729 18.0376 1.94433 18.0188 2.03692 17.8876C2.18507 17.6438 2.12952 17.1376 2.40729 16.6688C2.611 16.3313 3.0184 15.9001 3.57396 15.2626C3.92581 14.8688 4.25914 14.2313 4.25914 14.2313C4.25914 14.2313 4.33322 14.0063 4.48137 14.0438C4.64803 14.0813 4.79618 14.0626 4.79618 14.0626L4.87026 14.1188L5.0184 14.2688L5.24063 14.6063C5.24063 14.6063 5.611 15.1501 5.74063 15.3001C5.87026 15.4501 5.99989 15.5626 6.18507 15.7126C6.38877 15.9001 6.46285 15.9938 6.72211 16.2001C7.09248 16.5001 6.96285 16.6126 6.48137 16.3501C6.3147 16.2563 6.05544 16.1626 5.85174 16.1063C5.62951 16.0501 4.79618 15.8251 4.37026 15.7688C3.96285 15.7126 3.88877 15.7313 3.88877 15.7313C3.88877 15.7313 3.68507 15.7126 3.44433 15.8626C3.20359 16.0126 3.07396 16.1251 3.07396 16.1251C3.07396 16.1251 2.79618 16.4438 2.77766 16.5001C2.75914 16.5563 2.62951 16.7813 2.62951 16.7813C2.62951 16.7813 2.55544 16.8938 2.53692 17.0251C2.49989 17.1563 2.5184 17.2876 2.5184 17.2876L2.53692 17.5688L2.55544 17.8313C2.55544 17.8313 2.611 18.4876 2.74063 19.1438C2.77766 19.3313 2.8147 19.6313 2.8147 19.6313L2.90729 20.3063C2.90729 20.3063 2.96285 21.0188 3.0184 21.2626C3.07396 21.4876 3.111 21.5063 3.14803 21.6563C3.22211 21.9376 3.09248 22.0688 3.22211 22.4063C3.35174 22.7438 3.46285 22.7063 3.59248 22.9126C3.68507 23.0626 3.72211 23.1001 3.79618 23.2876C3.87026 23.4751 4.111 24.0938 4.38877 24.5438C4.68507 25.0126 5.07396 25.5938 5.33322 25.5376C5.59248 25.4813 5.77766 25.0688 5.77766 25.0688C5.77766 25.0688 6.07396 24.2626 5.88877 23.4751C5.70359 22.6688 4.85174 23.0438 4.74063 22.4626C4.72211 22.3313 4.74063 22.1251 4.74063 22.1251C4.74063 22.1251 4.72211 21.8813 4.68507 21.8063C4.64803 21.7313 4.35174 21.1688 4.24063 20.7001C4.14803 20.3438 4.16655 19.2001 4.09248 18.8813C3.88877 18.0563 3.87026 18.1313 3.98137 17.9813C4.111 17.8313 4.22211 17.8688 4.22211 17.8688L4.38877 17.8876L4.5184 17.9438C4.5184 17.9438 4.66655 18.0376 4.75914 18.0938C4.83322 18.1501 5.09248 18.3563 5.09248 18.3563L5.72211 18.7688C5.72211 18.7688 6.07396 18.9751 6.22211 19.0501C6.37025 19.1251 6.49988 19.2188 6.49988 19.2188L6.66655 19.3313L6.94433 19.5376L6.99988 19.5938L7.03692 19.6688C7.03692 19.6688 7.16655 19.9688 7.72211 20.2876C8.16655 20.5501 8.55544 20.4751 8.72211 20.6813C8.75914 20.7188 9.07396 21.1501 9.22211 21.4126C9.40729 21.7126 9.62951 22.0688 9.70359 22.1813C9.77766 22.2938 10.2406 22.8751 10.2406 22.8751L10.8517 23.5501L11.648 24.3001L12.3703 24.9188L12.8332 25.2938C12.8332 25.2938 13.2406 25.6876 13.7036 26.0063C14.148 26.3063 14.1666 26.3438 14.4628 26.5501C14.6851 26.7001 14.9814 26.9063 15.2777 27.1313C15.574 27.3751 15.9073 27.8251 15.7777 27.9751C15.6851 28.0313 15.5184 27.7876 15.2036 27.5063C14.9443 27.2813 14.8147 27.1688 14.5554 26.9813C14.2221 26.7188 14.0554 26.5876 13.6851 26.3626C13.4999 26.2501 13.1666 26.0438 13.148 26.0813C13.0184 26.4751 13.0369 26.8501 13.0554 27.3376C13.074 27.6751 13.1295 28.0126 13.2406 28.4438C13.3332 28.8563 13.4258 29.0813 13.574 29.4751C13.7221 29.8688 13.9999 30.4876 13.9999 30.4876L14.4258 31.3501L14.8147 32.0063L15.0184 32.3438L15.0925 32.4563C15.0925 32.4563 15.1851 32.6813 15.0925 32.8313C14.9999 32.9813 14.8888 33.3001 14.7221 33.3188C14.5554 33.3563 14.1666 33.3751 14.1666 33.3751L11.9628 33.3376L10.8147 33.2438C10.8147 33.2438 10.6851 33.1688 10.0184 33.1688C9.62951 33.1688 9.3147 33.3376 9.09248 33.3563C8.90729 33.3751 7.99989 33.3001 7.38877 33.5438C6.8147 33.7876 6.55544 33.8438 6.35174 34.2188C6.20359 34.5001 7.07396 34.9501 7.79618 35.1188C8.96285 35.3813 8.62951 34.8751 9.07396 34.5563C9.12951 34.5188 9.14803 34.4813 9.20359 34.4626C9.49988 34.3688 9.66655 34.6126 9.96285 34.6126C10.2962 34.6126 10.4814 34.5001 10.8147 34.4438C12.4999 34.2188 15.1295 35.0251 15.1295 35.0251C15.1295 35.0251 15.7777 35.2313 16.074 35.1751C16.4258 35.1001 16.3517 34.9688 16.4628 34.7626C16.5554 34.5938 16.5184 34.5563 16.5369 34.3688C16.5369 34.2563 16.5184 34.2001 16.4999 34.0876C16.4258 33.7688 16.2221 33.3188 16.2221 33.3188C16.2221 33.3188 16.074 32.9813 16.0184 32.8126C15.9443 32.5688 15.8703 32.4188 15.8332 32.1563C15.7221 31.4626 15.7406 31.5188 15.7406 31.1251C15.7406 30.4126 15.8147 30.0188 15.9999 29.3251C16.2777 28.3126 16.7962 27.8813 17.1851 26.9063C17.2962 26.6438 17.2962 26.2688 17.4258 26.2313C17.574 26.2126 17.5554 26.7001 17.4814 26.9813C17.2406 27.9563 16.648 28.3688 16.3703 29.3626C16.1666 30.1313 16.0554 30.5813 16.111 31.3688C16.1295 31.8001 16.2962 32.4751 16.2962 32.4751C16.2962 32.4751 16.5184 33.2251 16.6295 33.5063C16.7406 33.7876 16.9628 34.2563 16.9628 34.2563L17.4628 35.1563L17.7221 35.5876C17.7221 35.5876 17.9073 35.7563 17.8147 36.0376C17.7221 36.3188 17.5369 36.4876 17.3147 36.7313C16.6851 37.4813 15.2221 38.5876 14.8517 38.8501C14.3332 39.2438 14.3517 39.3563 14.3147 39.4688C14.111 40.0688 13.5184 40.0876 12.8703 40.8001C12.7221 40.9501 12.3332 41.3626 12.4073 41.7188C12.4443 41.8501 14.0369 42.1313 14.9628 41.7376C15.6851 41.4188 15.0554 41.0626 15.2591 40.7063C15.4073 40.4438 15.7777 40.4438 15.9443 40.2188C16.2221 39.8438 16.0369 39.8626 16.2777 39.5626C17.074 38.5876 17.5925 38.0251 19.0184 37.1438C19.148 37.0688 19.3888 36.9563 19.3888 36.9563C19.3888 36.9563 19.5925 36.8626 19.6666 36.7501C19.7591 36.6001 19.7406 36.4688 19.7406 36.3001C19.7406 36.1876 19.7221 36.1313 19.7221 36.0188C19.7221 35.8876 19.7406 35.8126 19.7036 35.6813C19.6666 35.4751 19.5369 35.3063 19.4628 35.1938C19.3888 35.1001 19.2591 34.9313 19.1851 34.5751C19.0925 34.2188 19.0925 33.9188 19.2406 33.5251C19.3888 33.1313 19.7221 32.8126 19.7221 32.8126L20.5554 32.2501C20.5554 32.2501 21.2777 31.7251 21.4999 31.5188C21.7406 31.3126 22.2036 30.8813 22.5369 30.3938C22.9258 29.8501 23.1295 29.5126 23.2962 28.8563C23.3517 28.6126 23.4073 28.2376 23.4073 28.2376C23.4073 28.2376 23.4073 27.9751 23.5554 27.9563C23.7036 27.9376 23.7406 27.9938 23.7406 27.9938C23.7406 27.9938 23.8703 28.0688 23.9073 28.4438C23.9258 28.8188 23.8147 29.2501 23.8147 29.2501C23.8147 29.2501 23.7036 29.6813 23.6666 29.9438C23.648 30.1126 23.648 30.2063 23.648 30.3938C23.648 30.7126 23.7777 30.9751 23.7777 30.9751C23.7777 30.9751 23.8517 31.0313 23.8517 30.9001C23.8517 30.7501 23.8888 30.5251 23.9443 30.3001C23.9999 30.1126 24.0369 30.1501 24.148 29.8313C24.2962 29.4188 24.1666 29.4563 24.2406 29.2126C24.2777 29.1001 24.3703 28.9876 24.4814 28.9876C24.5925 28.9876 24.611 29.1376 24.611 29.1376C24.611 29.1376 24.7221 29.6251 24.6295 30.0751C24.5369 30.5251 24.2036 31.1438 24.2036 31.1438L23.9443 31.5938C23.9443 31.5938 23.7591 31.9126 23.6851 32.1188C23.611 32.3438 23.5925 32.4376 23.6295 32.6438C23.6851 32.8688 23.8517 33.1688 23.9443 33.1126C24.0184 33.0563 23.8332 32.8688 24.0554 32.4188C24.2777 31.9688 24.574 31.6876 24.574 31.6876C24.574 31.6876 24.9814 31.2001 25.1665 30.8251C25.3332 30.4876 25.4999 29.9438 25.4999 29.9438C25.4999 29.9438 25.6295 29.4563 25.5925 29.0438C25.574 28.6501 25.4999 28.4438 25.4999 28.4438L25.3332 28.1438L25.2406 27.9188L25.2777 27.7876C25.3147 27.7688 25.4443 27.8626 25.5554 28.0126C25.6666 28.1626 25.7777 28.3501 25.8332 28.6126C25.8888 28.8001 25.9073 28.9688 25.9073 29.1376C25.9073 29.2876 25.8517 29.9063 26.074 30.3001C26.1666 30.4876 26.3888 30.9188 26.4073 30.7313C26.4443 30.3001 26.2591 30.0938 26.2777 29.7001C26.2962 29.2501 26.4073 29.3626 26.4443 29.1376C26.4814 28.8938 26.5369 28.8376 26.4999 28.5188C26.4628 28.2188 26.3332 27.8251 26.3332 27.8251L26.2036 27.5251L26.148 27.4126C26.148 27.4126 26.1851 27.3563 26.2406 27.3563L26.6851 27.2063C26.6851 27.2063 27.2591 26.9438 27.4814 26.7563C27.7221 26.5876 27.9999 26.2876 27.9999 26.2876C27.9999 26.2876 28.3703 25.8188 28.5554 25.4813C28.9999 24.6376 28.9999 23.5688 28.9814 23.0813C28.9628 22.6126 28.8332 21.9938 28.8332 21.9938C28.8332 21.9938 28.6851 21.2438 28.7221 20.7563C28.7591 20.2688 28.7962 20.0438 28.7962 20.0438C28.7962 20.0438 28.7777 19.5563 29.1851 19.0313C29.5925 18.5063 29.7777 18.1688 29.8517 17.7751C29.9258 17.4376 29.8147 16.8938 29.6666 17.1001ZM17.4073 13.7251C17.3517 13.7251 17.2777 13.6501 17.2777 13.6501C17.2777 13.6501 17.2591 13.6313 17.3147 13.5938C17.3703 13.5563 17.4443 13.5751 17.4443 13.5751L17.4999 13.5938L17.5925 13.7251C17.574 13.7813 17.4628 13.7438 17.4073 13.7251ZM17.6295 13.1063C17.574 13.0876 17.4814 13.0313 17.4814 13.0313C17.4814 13.0313 17.4628 12.9938 17.5184 12.9563C17.574 12.9188 17.6666 12.9376 17.6666 12.9376L17.7221 12.9751C17.7406 12.9938 17.8332 13.0876 17.8332 13.1251C17.8332 13.1813 17.7036 13.1251 17.6295 13.1063ZM17.8332 12.4688C17.7591 12.4501 17.648 12.3751 17.648 12.3751C17.648 12.3751 17.6295 12.3376 17.7036 12.3001C17.7777 12.2626 17.8888 12.2813 17.8888 12.2813L17.9628 12.3188C17.9999 12.3563 18.0925 12.4501 18.0925 12.5063C18.074 12.5626 17.9073 12.4876 17.8332 12.4688ZM17.9999 11.8876C17.9258 11.8688 17.8147 11.7938 17.8147 11.7938C17.8147 11.7938 17.7962 11.7563 17.8703 11.7188C17.9443 11.6813 18.0554 11.7001 18.0554 11.7001L18.1295 11.7376C18.1666 11.7751 18.2591 11.8688 18.2591 11.9251C18.2406 11.9626 18.074 11.8876 17.9999 11.8876ZM18.1666 11.1938C18.074 11.1751 17.9628 11.0813 17.9628 11.0813C17.9628 11.0813 17.9443 11.0438 18.0184 10.9876C18.0925 10.9313 18.2221 10.9688 18.2221 10.9688L18.2962 11.0063C18.3332 11.0438 18.4443 11.1563 18.4443 11.2126C18.4443 11.2876 18.2406 11.1938 18.1666 11.1938ZM18.2777 10.4438C18.1666 10.4251 18.0184 10.3126 18.0184 10.3126C18.0184 10.3126 17.9814 10.2563 18.0925 10.2001C18.1851 10.1438 18.3332 10.1626 18.3332 10.1626L18.4258 10.2188C18.4628 10.2563 18.5925 10.4063 18.611 10.4813C18.611 10.5563 18.3888 10.4626 18.2777 10.4438ZM18.3517 9.69382C18.2221 9.67507 18.0369 9.52507 18.0369 9.52507C18.0369 9.52507 17.9999 9.46882 18.111 9.39382C18.2221 9.31882 18.4073 9.35632 18.4073 9.35632C18.4073 9.35632 18.4628 9.37508 18.5184 9.41257C18.574 9.46883 18.7221 9.63757 18.7406 9.73132C18.7591 9.82507 18.4814 9.71257 18.3517 9.69382ZM18.4628 8.83132C18.3147 8.81257 18.111 8.64382 18.111 8.64382C18.111 8.64382 18.074 8.56882 18.2036 8.49382C18.3332 8.40007 18.5369 8.45632 18.5369 8.45632C18.5369 8.45632 18.611 8.47507 18.6666 8.53132C18.7221 8.58757 18.9073 8.79383 18.9258 8.88758C18.9258 9.00008 18.611 8.85007 18.4628 8.83132ZM18.3888 5.34382C18.2777 5.32507 18.1295 5.21257 18.1295 5.21257C18.1295 5.21257 18.0925 5.17507 18.2036 5.11882C18.3147 5.06257 18.4628 5.10007 18.4628 5.10007C18.4628 5.10007 18.5184 5.11882 18.5554 5.15632C18.5925 5.19382 18.7406 5.32507 18.7406 5.40007C18.7406 5.45632 18.4999 5.36257 18.3888 5.34382ZM18.7962 6.18757C18.8147 6.26257 18.5554 6.16882 18.4258 6.15007C18.3147 6.13132 18.148 6.00007 18.148 6.00007C18.148 6.00007 18.111 5.94382 18.2221 5.88757C18.3332 5.81257 18.4814 5.85007 18.4814 5.85007C18.4814 5.85007 18.5369 5.86882 18.5925 5.90632C18.648 5.96257 18.7777 6.11257 18.7962 6.18757ZM18.2591 7.57507C18.3703 7.50007 18.5554 7.53757 18.5554 7.53757C18.5554 7.53757 18.611 7.55632 18.6666 7.59382C18.7221 7.65007 18.8703 7.81882 18.8888 7.91257C18.9073 8.00632 18.6295 7.89382 18.4999 7.85632C18.3703 7.83757 18.1851 7.68757 18.1851 7.68757C18.1851 7.68757 18.148 7.65007 18.2591 7.57507ZM18.4999 6.93757C18.3703 6.91882 18.1851 6.76882 18.1851 6.76882C18.1851 6.76882 18.148 6.71257 18.2591 6.63757C18.3703 6.56257 18.5554 6.60007 18.5554 6.60007C18.5554 6.60007 18.611 6.61882 18.6666 6.65632C18.7221 6.71257 18.8703 6.88132 18.8888 6.97507C18.9073 7.08757 18.6295 6.97507 18.4999 6.93757ZM18.7406 4.12507C18.8888 4.16257 18.9258 4.25632 18.8517 4.25632C18.7777 4.27507 18.7406 4.27507 18.6851 4.27507C18.5184 4.27507 18.5369 4.20007 18.3147 4.31257C18.0925 4.42508 18.2591 4.36882 17.9443 4.48132C17.648 4.59382 17.7221 4.29382 17.7221 4.29382C17.7221 4.29382 17.7406 4.23757 17.7777 4.08757C17.8147 3.93757 17.9999 4.08757 18.1295 4.08757C18.3703 4.08757 18.574 4.08757 18.7406 4.12507ZM17.9073 2.96257L17.9999 3.01882C18.0369 3.05632 18.1666 3.20632 18.1851 3.28132C18.2036 3.35632 17.9628 3.26257 17.8703 3.24382C17.7591 3.22507 17.611 3.11257 17.611 3.11257C17.611 3.11257 17.574 3.05632 17.6851 3.00007C17.7777 2.92507 17.9073 2.96257 17.9073 2.96257ZM17.2406 2.06257C17.3332 2.00632 17.4814 2.02507 17.4814 2.02507L17.574 2.08132C17.611 2.11882 17.7406 2.26882 17.7591 2.34382C17.7777 2.41882 17.5369 2.32507 17.4443 2.30632C17.3332 2.28757 17.1851 2.17507 17.1851 2.17507C17.1851 2.17507 17.148 2.11882 17.2406 2.06257ZM17.0554 14.2126C17.111 14.1751 17.1851 14.1938 17.1851 14.1938L17.2406 14.2126L17.3332 14.3438C17.3332 14.3813 17.2221 14.3251 17.1666 14.3251C17.111 14.3251 17.0369 14.2501 17.0369 14.2501C17.0369 14.2501 16.9999 14.2313 17.0554 14.2126ZM9.62951 5.28757C9.57396 5.32508 9.53692 5.34382 9.46285 5.40007C9.37026 5.47507 9.27766 5.66257 9.22211 5.60632C9.14803 5.55008 9.18507 5.34382 9.18507 5.34382C9.18507 5.34382 9.24063 5.19382 9.3147 5.04382C9.40729 4.89382 9.5184 4.89382 9.5184 4.89382C9.62951 4.89382 9.83322 4.96882 9.83322 5.13757C9.85174 5.30632 9.72211 5.23133 9.62951 5.28757ZM11.148 5.86882C11.148 5.86882 11.074 5.88758 11.0554 5.75632C11.0369 5.62507 11.148 5.60632 11.148 5.60632C11.148 5.60632 11.3703 5.49382 11.3703 5.64382C11.3888 5.77507 11.148 5.86882 11.148 5.86882ZM13.1295 3.31882C13.1295 3.31882 12.8888 3.71257 12.5554 3.86257C12.2221 4.01257 11.9999 4.08757 11.3703 4.14382C11.2777 4.14382 11.3147 4.08757 11.3147 4.08757C11.3147 4.08757 12.0369 3.88132 12.4443 3.65632C12.6666 3.52507 12.9258 3.35632 12.9999 3.28132C13.2591 3.05632 13.1295 3.31882 13.1295 3.31882ZM0.685071 19.5563C0.685071 19.6501 0.57396 19.8188 0.536923 19.8188C0.499885 19.8188 0.425811 19.6501 0.44433 19.5563C0.462848 19.4626 0.481367 19.2001 0.629515 19.2376C0.740626 19.2563 0.685071 19.4626 0.685071 19.5563ZM1.16655 17.4376C1.16655 17.4376 0.999885 17.7938 0.94433 17.6438C0.888774 17.5126 0.999885 17.2688 0.999885 17.2688C1.14803 17.1376 1.20359 16.9501 1.27766 17.0251C1.33322 17.1001 1.16655 17.4376 1.16655 17.4376ZM3.46285 13.7813C3.29618 13.9688 2.77766 14.9626 2.66655 14.7938C2.55544 14.6626 3.16655 13.7251 3.29618 13.5376C3.42581 13.3313 3.53692 13.3688 3.53692 13.3688L3.57396 13.4063C3.55544 13.4063 3.62952 13.5938 3.46285 13.7813ZM4.85174 12.3001C4.85174 12.3001 4.48137 12.3751 4.53692 12.2438C4.611 12.1126 4.87026 12.0563 4.87026 12.0563C5.07396 12.0938 5.111 12.1126 5.09248 12.2063C5.111 12.3001 4.85174 12.3001 4.85174 12.3001ZM6.35174 14.9251C6.18507 15.0938 6.12951 14.8688 5.88877 14.5876C5.64803 14.3251 5.70359 14.1001 5.70359 14.1001H5.74063L5.77766 14.1188L5.87026 14.1563L5.92581 14.2126L6.111 14.4001C6.18507 14.5126 6.38877 14.8876 6.35174 14.9251ZM3.48137 20.5313C3.42581 20.5313 3.37026 20.4188 3.37026 20.4188C3.37026 20.4188 3.22211 20.1938 3.16655 20.0251C3.111 19.8751 3.09248 19.6313 3.09248 19.6313C3.09248 19.6313 3.05544 19.3126 3.05544 19.2001C3.07396 19.0501 3.07396 18.9188 3.09248 18.8438C3.111 18.7688 3.18507 18.7876 3.18507 18.7876C3.29618 18.7876 3.29618 18.8813 3.29618 18.8813V18.9376C3.29618 18.9376 3.29618 19.2751 3.3147 19.5376C3.3147 19.6126 3.5184 20.4563 3.5184 20.4563C3.5184 20.4563 3.55544 20.5313 3.48137 20.5313ZM3.44433 16.5938C3.3147 16.8001 3.22211 16.8001 3.22211 16.8001C3.22211 16.7813 3.18507 16.7063 3.29618 16.4813C3.40729 16.2563 3.5184 16.2751 3.5184 16.2751L3.55544 16.3126C3.55544 16.3126 3.57396 16.3876 3.44433 16.5938ZM4.75914 24.4501C4.79618 24.3751 5.03692 24.5626 5.03692 24.5626C5.12952 24.5813 5.22211 24.7501 5.22211 24.7501C5.22211 24.7501 5.25914 24.8813 5.14803 24.9188C5.03692 24.9751 4.96285 24.8626 4.96285 24.8626C4.96285 24.8626 4.72211 24.5251 4.75914 24.4501ZM6.49988 18.7126C6.24063 18.6563 5.68507 18.2251 5.46285 18.1126C5.24063 18.0001 4.87026 17.9626 5.03692 17.8126C5.05544 17.7938 5.07396 17.7563 5.111 17.7563C5.14803 17.7563 5.3147 17.8126 5.3147 17.8126L5.72211 17.9813C5.74063 17.9813 5.94433 18.0751 6.111 18.1688C6.25914 18.2626 6.5184 18.4313 6.5184 18.4313L6.62951 18.5251C6.62951 18.5626 6.75914 18.7688 6.49988 18.7126ZM8.75914 14.9813C8.75914 14.9813 8.44433 15.4126 8.25914 15.6751C8.0184 16.0313 7.72211 16.5751 7.66655 16.5188C7.611 16.4626 7.92581 15.8626 8.09248 15.5438C8.27766 15.1501 8.55544 14.9438 8.66655 14.9063C8.90729 14.7938 8.75914 14.9813 8.75914 14.9813ZM7.75914 33.7501C7.75914 33.7501 7.75914 33.8251 7.62951 33.9188C7.49989 34.0126 7.44433 33.9563 7.42581 33.9563C7.40729 33.9563 7.27766 33.8813 7.27766 33.8063C7.29618 33.7313 7.49989 33.6751 7.49989 33.6751C7.85174 33.6563 7.75914 33.7501 7.75914 33.7501ZM10.6295 33.6376C10.4999 33.6188 10.4814 33.5813 10.4999 33.5626C10.4999 33.5438 10.5369 33.5063 10.6851 33.5063C10.8332 33.5063 10.8332 33.5813 10.8332 33.5813C10.8332 33.6376 10.7777 33.6563 10.6295 33.6376ZM13.9258 33.8251C13.648 33.9001 13.5369 33.8626 13.2962 33.8813C13.0925 33.9001 12.9999 33.9188 12.7962 33.9188C12.4443 33.9188 12.4073 33.9376 11.9073 33.7876C11.8147 33.7501 11.7036 33.6376 11.7406 33.6001C11.7777 33.5438 11.8517 33.5626 11.8517 33.5626C11.8517 33.5626 12.4814 33.6751 12.8888 33.6938C13.1851 33.7126 13.3332 33.7313 13.6295 33.7126C13.7962 33.7126 13.7036 33.6938 13.9628 33.6938C14.0554 33.6751 13.9999 33.8063 13.9258 33.8251ZM15.6851 33.3001C15.6666 33.3188 15.5554 33.3563 15.4628 33.3751C15.3517 33.3938 15.4073 33.3001 15.4073 33.3001C15.4073 33.3001 15.4814 33.1876 15.574 33.1313C15.6851 33.0751 15.7406 33.1313 15.7406 33.1313C15.7777 33.2063 15.7036 33.2813 15.6851 33.3001ZM17.0554 29.7001C16.9258 29.9813 16.8888 30.0751 16.8703 30.3376C16.8332 30.6188 16.9999 31.4063 16.7406 31.1063C16.648 30.9751 16.5554 30.3563 16.6295 30.0563C16.7591 29.3813 17.2962 29.1938 17.0554 29.7001ZM13.3147 41.1563C13.2036 41.2313 13.4258 41.4563 13.074 41.4376C12.8703 41.4188 12.9814 41.2313 12.9999 41.2126L13.1295 41.0251C13.2221 40.8938 13.2777 40.8751 13.3703 40.8188C13.4628 40.7626 13.5369 40.9126 13.5369 40.9126C13.5369 40.9126 13.574 40.9688 13.574 41.0438C13.574 41.1001 13.4073 41.0813 13.3147 41.1563ZM15.2591 39.2626L15.0925 39.3938C15.074 39.3938 14.9628 39.4876 14.9258 39.4313C14.8888 39.3751 14.9443 39.3001 14.9443 39.2813C14.9443 39.2626 15.0554 39.1313 15.148 39.0938C15.2406 39.0376 15.2962 39.0938 15.2962 39.0938C15.3517 39.2251 15.2591 39.2626 15.2591 39.2626ZM16.1295 6.41257C16.1295 6.41257 16.0554 6.65632 15.9073 6.71257C15.7221 6.76882 15.0184 6.78757 14.9999 6.73132C14.9814 6.67507 15.8147 6.60007 16.1295 6.28132C16.2036 6.20632 16.1295 6.41257 16.1295 6.41257ZM15.8703 5.79382C15.9258 5.70007 15.8888 5.94382 15.8888 5.94382C15.8888 5.94382 15.8332 6.18757 15.7036 6.26257C15.5369 6.35632 15.1295 6.46882 15.0925 6.41257C15.0925 6.37507 15.6295 6.20633 15.8703 5.79382ZM14.7221 2.98132C14.7221 2.98132 14.7962 2.98132 14.9073 3.03757C15.0184 3.11257 15.0925 3.33757 15.0925 3.33757C15.0925 3.33757 15.111 3.37507 15.0184 3.37507C14.9628 3.37507 14.9628 3.28132 14.9073 3.24382C14.8332 3.18757 14.7777 3.16882 14.6851 3.13132C14.5925 3.09382 14.4628 3.15007 14.4443 3.05632C14.4443 2.94382 14.7221 2.98132 14.7221 2.98132ZM13.8703 3.60007C13.8703 3.60007 13.9073 3.48757 14.074 3.39382C14.2221 3.30007 14.4258 3.30007 14.4258 3.30007C14.4258 3.30007 14.5369 3.30007 14.6666 3.39382C14.7962 3.48757 14.9073 3.80632 14.9073 3.80632C14.9073 3.80632 14.9443 4.01257 14.8517 4.08757C14.7591 4.16257 14.611 4.03132 14.5369 3.91882C14.4443 3.80632 14.3888 3.76882 14.2591 3.73132C14.111 3.67507 13.8888 3.84382 13.8517 3.73132C13.8517 3.69382 13.8703 3.60007 13.8703 3.60007ZM13.8147 6.18757C13.7036 6.20632 13.7777 6.09382 13.7777 6.09382C13.7777 6.09382 14.0925 5.96257 14.2962 5.85007C14.6295 5.68132 15.2591 5.00632 15.0925 5.32507C15.0184 5.47507 14.7962 5.66257 14.7962 5.66257C14.7962 5.66257 14.5369 6.03757 14.4814 6.09382C14.2406 6.28132 13.9443 6.16882 13.8147 6.18757ZM11.2036 13.4626L11.2221 13.4251C11.2221 13.4251 11.7777 13.0501 12.648 13.1626C13.1666 13.2376 13.6666 13.7063 13.5925 13.7626C13.5184 13.8188 13.4073 13.7626 13.3703 13.7626L13.1851 13.6688L12.9073 13.5938C12.9073 13.5938 12.4073 13.4813 12.0369 13.5001C11.6666 13.5188 11.3332 13.6501 11.3332 13.6501C11.3332 13.6501 11.1851 13.7251 11.148 13.6313C11.1295 13.5188 11.2036 13.4626 11.2036 13.4626ZM12.574 24.0188C11.2962 23.0251 9.74063 21.0001 9.92581 20.8126C10.0925 20.6626 10.7221 21.6001 11.6666 22.6313C12.6666 23.7188 13.8332 24.7501 13.8703 24.8813C13.9443 25.1063 13.0554 24.3938 12.574 24.0188ZM15.4814 10.0126C14.9443 10.9501 14.2036 11.6626 14.2036 11.6626C13.9443 11.8501 14.111 11.5126 14.111 11.5126C14.111 11.5126 14.8332 10.5001 15.1666 9.78757C15.4073 9.28133 15.5554 8.60633 15.6666 8.47507C15.9258 8.15632 15.7962 9.45007 15.4814 10.0126ZM16.9628 20.2876C16.4073 19.6126 15.9999 18.8813 15.8703 17.9626C15.8332 17.7563 15.8332 17.4563 16.0184 17.4938C16.1851 17.5126 16.1666 17.8313 16.1666 17.9063C16.2221 18.4501 16.4443 18.9938 16.8517 19.6501C17.4258 20.5688 18.3517 21.2813 18.3147 21.3376C18.2221 21.4313 17.2962 20.7001 16.9628 20.2876ZM17.1295 37.8188C16.8147 38.1188 16.2777 38.5313 16.2777 38.5313H16.2036V38.4376L16.2221 38.4001L16.2591 38.3438L16.2962 38.2876L16.3332 38.2313L16.4443 38.1001L16.7036 37.8563L16.9628 37.6126L17.3703 37.2001C17.3703 37.2001 17.5184 37.0313 17.574 36.9938C17.6295 36.9563 17.6666 36.9188 17.7221 36.8813C17.7962 36.8438 17.8888 36.7876 17.9258 36.8251V36.9001C17.9443 36.9563 17.4628 37.5001 17.1295 37.8188ZM18.2777 23.9438C18.0369 24.1126 17.9443 24.0938 17.7962 24.2626C17.6295 24.4688 17.574 25.1626 17.4073 24.8813C17.2406 24.6001 17.3517 24.2063 17.6295 23.9063C17.9628 23.5126 18.6851 23.6438 18.2777 23.9438ZM19.148 36.2813C19.2591 36.2438 19.3147 36.2626 19.3147 36.2626L19.3517 36.3376C19.3517 36.3563 19.2036 36.5626 19.1295 36.5626C19.0369 36.5438 19.074 36.4313 19.074 36.4313C19.074 36.4313 19.0369 36.3188 19.148 36.2813ZM22.3147 28.6501C22.148 28.5376 22.4073 28.2001 22.4073 27.9188C22.4073 27.6938 22.3703 27.5251 22.3703 27.3376C22.3703 27.1501 22.5554 27.0938 22.5554 27.0938C22.5925 27.0938 22.6666 27.1313 22.7591 27.3188C22.8517 27.5063 22.611 28.8376 22.3147 28.6501ZM27.9814 23.2876C27.9443 24.0751 27.9073 24.6376 27.4443 25.2376C26.8888 25.9688 25.9258 26.7188 26.1295 26.1188C26.2591 25.7626 27.111 25.3126 27.4443 24.3188C27.6295 23.7188 27.6665 23.1563 27.6665 23.1563L27.6295 22.0126C27.6295 22.0126 27.611 21.9188 27.611 21.7876C27.6666 21.6376 27.7406 21.7501 27.7406 21.7501L27.7777 21.8063C27.7777 21.8438 27.9999 22.7251 27.9814 23.2876Z" fill="white" style="mix-blend-mode:difference"/>
</g>
<defs>
<clipPath id="clip0_13_352">
<rect width="30" height="42" fill="white"/>
</clipPath>
</defs>
</svg>
